<?xml version="1.0" encoding="UTF-8" standalone="no"?>
<!DOCTYPE svg PUBLIC "-//W3C//DTD SVG 1.1//EN" "http://www.w3.org/Graphics/SVG/1.1/DTD/svg11.dtd">
<svg width="100%" height="100%" viewBox="0 0 36 36" version="1.1" xmlns="http://www.w3.org/2000/svg" xmlns:xlink="http://www.w3.org/1999/xlink" xml:space="preserve" xmlns:serif="http://www.serif.com/" style="fill-rule:evenodd;clip-rule:evenodd;stroke-linejoin:round;stroke-miterlimit:2;">
    <g transform="matrix(0.479171,0,0,0.479171,25.4737,35.8961)">
        <path d="M0,-74.913C12.013,-74.913 21.751,-65.175 21.751,-53.162L21.751,-21.751C21.751,-9.738 12.013,0 0,0L-31.411,0C-43.424,0 -53.162,-9.738 -53.162,-21.751L-53.162,-53.162C-53.162,-65.175 -43.424,-74.913 -31.411,-74.913L0,-74.913ZM2.373,-56.504L-33.784,-56.504C-36.828,-56.504 -39.304,-54.028 -39.304,-50.984L-39.304,-23.929C-39.304,-20.885 -36.828,-18.409 -33.784,-18.409L2.373,-18.409C5.417,-18.409 7.893,-20.885 7.893,-23.929L7.893,-50.984C7.893,-54.028 5.417,-56.504 2.373,-56.504ZM-1.298,-51.11L-15.681,-40.793L-29.637,-51.11L-1.298,-51.11ZM2.373,-23.803L-33.784,-23.803C-33.853,-23.803 -33.91,-23.86 -33.91,-23.929L-33.91,-47.562L-15.729,-34.12L2.499,-47.195L2.499,-23.929C2.499,-23.86 2.443,-23.803 2.373,-23.803Z" style="fill:white;fill-rule:nonzero;"/>
    </g>
</svg>
