<?xml version="1.0" encoding="UTF-8" standalone="no"?>
<!DOCTYPE svg PUBLIC "-//W3C//DTD SVG 1.1//EN" "http://www.w3.org/Graphics/SVG/1.1/DTD/svg11.dtd">
<svg width="100%" height="100%" viewBox="0 0 36 36" version="1.1" xmlns="http://www.w3.org/2000/svg" xmlns:xlink="http://www.w3.org/1999/xlink" xml:space="preserve" xmlns:serif="http://www.serif.com/" style="fill-rule:evenodd;clip-rule:evenodd;stroke-linejoin:round;stroke-miterlimit:2;">
    <g transform="matrix(0.253127,0,0,0.253127,14.6181,15.6719)">
        <g id="Layer2">
            <g transform="matrix(3.95059,0,0,3.94322,-57.7502,-61.6471)">
                <path d="M0.04,8.822C0.04,3.869 4.054,-0.152 8.997,-0.152L26.913,-0.152C31.857,-0.152 35.871,3.869 35.871,8.822L35.871,27.11C35.871,32.063 31.857,36.085 26.913,36.085L23.664,36.084L23.063,36.084C22.619,35.968 22.463,35.571 22.463,35.219L22.463,30.275C22.463,28.593 21.874,27.497 21.23,26.938C25.234,26.492 29.441,24.968 29.441,18.048C29.441,16.081 28.745,14.472 27.591,13.211C27.776,12.758 28.392,10.924 27.414,8.442C27.414,8.442 25.906,7.959 22.472,10.289C21.035,9.89 19.496,9.69 17.967,9.682C16.438,9.69 14.901,9.89 13.466,10.289C10.03,7.959 8.519,8.442 8.519,8.442C7.542,10.923 8.158,12.756 8.344,13.211C7.194,14.472 6.491,16.079 6.491,18.048C6.491,24.95 10.691,26.495 14.685,26.953C14.169,27.402 13.703,28.198 13.543,29.362C12.516,29.823 9.913,30.619 8.309,27.865C8.309,27.865 7.359,26.133 5.553,26.007C5.553,26.007 3.796,25.983 5.429,27.102C5.429,27.102 6.608,27.656 7.426,29.739C7.426,29.739 8.468,32.955 13.471,31.865L13.471,35.219C13.471,35.572 13.31,35.971 12.859,36.084L8.997,36.085C4.054,36.085 0.04,32.063 0.04,27.11L0.04,8.822Z" style="fill:white;"/>
            </g>
            <g transform="matrix(5.92094,0,0,5.92094,-57.8211,-57.8262)">
                <path d="M12,0C5.374,0 0,5.373 0,12C0,17.302 3.438,21.8 8.207,23.387C8.806,23.498 9,23.126 9,22.81L9,20.576C5.662,21.302 4.967,19.16 4.967,19.16C4.421,17.773 3.634,17.404 3.634,17.404C2.545,16.659 3.717,16.675 3.717,16.675C4.922,16.759 5.556,17.912 5.556,17.912C6.626,19.746 8.363,19.216 9.048,18.909C9.155,18.134 9.466,17.604 9.81,17.305C7.145,17 4.343,15.971 4.343,11.374C4.343,10.063 4.812,8.993 5.579,8.153C5.455,7.85 5.044,6.629 5.696,4.977C5.696,4.977 6.704,4.655 8.997,6.207C9.954,5.941 10.98,5.808 12,5.803C13.02,5.808 14.047,5.941 15.006,6.207C17.297,4.655 18.303,4.977 18.303,4.977C18.956,6.63 18.545,7.851 18.421,8.153C19.191,8.993 19.656,10.064 19.656,11.374C19.656,15.983 16.849,16.998 14.177,17.295C14.607,17.667 15,18.397 15,19.517L15,22.81C15,23.129 15.192,23.504 15.801,23.386C20.566,21.797 24,17.3 24,12C24,5.373 18.627,0 12,0Z" style="fill:white;fill-rule:nonzero;"/>
            </g>
        </g>
    </g>
</svg>
