<?xml version="1.0" encoding="UTF-8" standalone="no"?>
<!DOCTYPE svg PUBLIC "-//W3C//DTD SVG 1.1//EN" "http://www.w3.org/Graphics/SVG/1.1/DTD/svg11.dtd">
<svg width="100%" height="100%" viewBox="0 0 36 36" version="1.1" xmlns="http://www.w3.org/2000/svg" xmlns:xlink="http://www.w3.org/1999/xlink" xml:space="preserve" xmlns:serif="http://www.serif.com/" style="fill-rule:evenodd;clip-rule:evenodd;stroke-linejoin:round;stroke-miterlimit:2;">
    <g transform="matrix(0.480524,0,0,0.480524,25.5456,35.9975)">
        <path d="M0,-74.913C12.013,-74.913 21.751,-65.175 21.751,-53.162L21.751,-21.751C21.751,-9.738 12.013,0 0,0L-31.411,0C-43.424,0 -53.162,-9.738 -53.162,-21.751L-53.162,-53.162C-53.162,-65.175 -43.424,-74.913 -31.411,-74.913L0,-74.913ZM-27.391,-52.519C-27.391,-55.147 -29.521,-57.277 -32.149,-57.277C-34.777,-57.277 -36.907,-55.147 -36.907,-52.519C-36.907,-49.891 -34.777,-47.761 -32.149,-47.761C-29.521,-47.761 -27.391,-49.891 -27.391,-52.519ZM-27.718,-45.585L-36.58,-45.585L-36.58,-17.636L-27.718,-17.636L-27.718,-45.585ZM-21.46,-46.402L-21.46,-17.636L-12.598,-17.636L-12.598,-33.436C-12.598,-36.214 -9.995,-38.883 -7.341,-38.883C-4.487,-38.883 -2.735,-36.214 -2.735,-33.436L-2.735,-17.636L6.127,-17.636L6.127,-36.051C6.127,-43.841 -0.432,-46.402 -5.138,-46.402C-8.518,-46.402 -10.495,-44.822 -12.498,-42.643L-12.598,-42.643L-12.007,-46.402L-21.46,-46.402Z" style="fill:white;fill-rule:nonzero;"/>
    </g>
</svg>
